<svg width="27" height="35" viewBox="0 0 27 35" fill="none" xmlns="http://www.w3.org/2000/svg">
<path d="M14.793 24.6304C15.3453 24.6304 15.793 24.1827 15.793 23.6304C15.793 23.0781 15.3453 22.6304 14.793 22.6304C14.2407 22.6304 13.793 23.0781 13.793 23.6304C13.793 24.1827 14.2407 24.6304 14.793 24.6304Z" fill="#3D3D3D"/>
<path d="M10.793 18.6304C11.3453 18.6304 11.793 18.1827 11.793 17.6304C11.793 17.0781 11.3453 16.6304 10.793 16.6304C10.2407 16.6304 9.79297 17.0781 9.79297 17.6304C9.79297 18.1827 10.2407 18.6304 10.793 18.6304Z" fill="#3D3D3D"/>
<path d="M26.3004 29.0095L20.7404 22.5285H23.4794C23.6733 22.5283 23.8632 22.473 24.0268 22.3688C24.1904 22.2647 24.3209 22.1161 24.4031 21.9405C24.4854 21.7649 24.5159 21.5695 24.4912 21.3772C24.4664 21.1849 24.3874 21.0036 24.2634 20.8545L18.8534 14.3625H19.4004C19.5898 14.3621 19.7753 14.3091 19.9363 14.2093C20.0973 14.1096 20.2274 13.9671 20.3122 13.7978C20.3969 13.6284 20.4329 13.4388 20.4162 13.2502C20.3994 13.0616 20.3306 12.8813 20.2174 12.7295L14.9404 5.7025C15.3685 5.42422 15.7201 5.04332 15.9634 4.59447C16.2067 4.14561 16.3339 3.64305 16.3334 3.1325C16.3408 2.72567 16.267 2.32146 16.1164 1.94346C15.9658 1.56546 15.7414 1.22125 15.4563 0.930948C15.1711 0.640641 14.8311 0.41005 14.4558 0.252641C14.0806 0.0952319 13.6778 0.0141602 13.2709 0.0141602C12.864 0.0141602 12.4612 0.0952319 12.086 0.252641C11.7108 0.41005 11.3707 0.640641 11.0856 0.930948C10.8005 1.22125 10.576 1.56546 10.4254 1.94346C10.2748 2.32146 10.2011 2.72567 10.2084 3.1325C10.2078 3.64296 10.3349 4.14546 10.578 4.59431C10.8211 5.04315 11.1726 5.4241 11.6004 5.7025L6.32841 12.7325C6.21526 12.8838 6.1465 13.0637 6.12986 13.2519C6.11321 13.4401 6.14933 13.6293 6.23417 13.7981C6.319 13.9669 6.4492 14.1088 6.61015 14.2078C6.7711 14.3068 6.95645 14.359 7.14541 14.3585H7.68841C6.65041 15.6045 2.39641 20.7155 2.27641 20.8585C2.15331 21.0079 2.07515 21.1891 2.05103 21.3811C2.02691 21.5732 2.05782 21.7681 2.14016 21.9433C2.22251 22.1185 2.3529 22.2666 2.51616 22.3706C2.67943 22.4745 2.86885 22.53 3.06241 22.5305H5.80041L0.245408 29.0115C0.118485 29.1598 0.0367121 29.3413 0.00977371 29.5346C-0.0171647 29.7279 0.0118603 29.9248 0.0934109 30.1021C0.174962 30.2794 0.305622 30.4297 0.469914 30.535C0.634206 30.6403 0.825247 30.6964 1.02041 30.6965H10.2074V33.8265C10.2074 34.0973 10.315 34.357 10.5065 34.5485C10.6979 34.7399 10.9576 34.8475 11.2284 34.8475H15.3114C15.5822 34.8475 15.8419 34.7399 16.0334 34.5485C16.2248 34.357 16.3324 34.0973 16.3324 33.8265V30.6965H25.5194C25.7146 30.6964 25.9056 30.6403 26.0699 30.535C26.2342 30.4297 26.3649 30.2794 26.4464 30.1021C26.528 29.9248 26.557 29.7279 26.53 29.5346C26.5031 29.3413 26.4213 29.1598 26.2944 29.0115L26.3004 29.0095ZM13.2714 2.0445C13.5485 2.06063 13.8089 2.18247 13.9989 2.38489C14.1888 2.58732 14.2939 2.85491 14.2924 3.1325C14.2924 3.40329 14.1848 3.66298 13.9934 3.85446C13.8019 4.04593 13.5422 4.1535 13.2714 4.1535C13.0006 4.1535 12.7409 4.04593 12.5494 3.85446C12.358 3.66298 12.2504 3.40329 12.2504 3.1325C12.2489 2.85491 12.354 2.58732 12.5439 2.38489C12.7339 2.18247 12.9943 2.06063 13.2714 2.0445V2.0445ZM13.2714 6.8765L17.3544 12.3205H17.0544C16.1066 12.3237 15.1768 12.0614 14.3704 11.5633C13.5639 11.0653 12.913 10.3514 12.4914 9.5025L12.0164 8.5525L13.2714 6.8765ZM5.24241 20.4865L10.6524 13.9945C10.7764 13.8454 10.8554 13.6641 10.8802 13.4718C10.9049 13.2795 10.8744 13.0841 10.7921 12.9085C10.7099 12.7329 10.5794 12.5843 10.4158 12.4802C10.2522 12.3761 10.0623 12.3207 9.8684 12.3205H9.1874L10.6464 10.3755L10.6644 10.4125C11.1887 11.461 11.9631 12.3643 12.9192 13.0428C13.8752 13.7212 14.9836 14.1538 16.1464 14.3025L16.2464 14.4285C15.994 16.1188 15.1409 17.6616 13.8436 18.7742C12.5462 19.8868 10.8915 20.4947 9.18241 20.4865H5.24241ZM14.2924 32.8025H12.2504V30.6925H14.2924V32.8025ZM3.24141 28.6535L7.56141 23.6135C9.46889 25.7259 11.7764 27.4389 14.3504 28.6535H3.24141ZM9.34141 22.5265C11.2228 22.4964 13.0496 21.8894 14.575 20.7875C16.1003 19.6857 17.2506 18.1422 17.8704 16.3655L21.3004 20.4865H18.5214C18.3262 20.4866 18.1352 20.5427 17.9709 20.648C17.8066 20.7533 17.676 20.9036 17.5944 21.0809C17.5129 21.2582 17.4838 21.4551 17.5108 21.6484C17.5377 21.8417 17.6195 22.0233 17.7464 22.1715L23.3004 28.6515C20.6808 28.6206 18.0943 28.0623 15.6951 27.01C13.296 25.9577 11.1334 24.4329 9.33641 22.5265H9.34141Z" fill="#3D3D3D"/>
</svg>
