<svg width="27" height="35" viewBox="0 0 27 35" fill="none" xmlns="http://www.w3.org/2000/svg">
<path d="M6.97266 18.5254C7.52494 18.5254 7.97266 18.0777 7.97266 17.5254C7.97266 16.9731 7.52494 16.5254 6.97266 16.5254C6.42037 16.5254 5.97266 16.9731 5.97266 17.5254C5.97266 18.0777 6.42037 18.5254 6.97266 18.5254Z" fill="#3D3D3D"/>
<path d="M12.9727 18.5254C13.5249 18.5254 13.9727 18.0777 13.9727 17.5254C13.9727 16.9731 13.5249 16.5254 12.9727 16.5254C12.4204 16.5254 11.9727 16.9731 11.9727 17.5254C11.9727 18.0777 12.4204 18.5254 12.9727 18.5254Z" fill="#3D3D3D"/>
<path d="M19.4727 18.5254C19.7488 18.5254 19.9727 18.0777 19.9727 17.5254C19.9727 16.9731 19.7488 16.5254 19.4727 16.5254C19.1965 16.5254 18.9727 16.9731 18.9727 17.5254C18.9727 18.0777 19.1965 18.5254 19.4727 18.5254Z" fill="#3D3D3D"/>
<path d="M13.5512 0.000976562C9.50725 0.000976562 6.20025 2.90098 4.02825 6.31198C1.58648 10.2652 0.289375 14.8184 0.28125 19.465C0.28125 29.23 6.38125 34.845 13.5512 34.845C20.7212 34.845 26.8213 29.23 26.8213 19.465C26.8131 14.8184 25.516 10.2652 23.0742 6.31198C20.9032 2.90098 17.5972 0.000976562 13.5512 0.000976562ZM13.5512 2.04298C16.0842 2.04298 18.5712 3.57298 20.6442 6.37898C19.9225 6.62679 19.3028 7.10591 18.8812 7.74198C18.7504 7.93834 18.5731 8.09935 18.3651 8.21072C18.157 8.32208 17.9247 8.38035 17.6888 8.38035C17.4528 8.38035 17.2205 8.32208 17.0124 8.21072C16.8044 8.09935 16.6271 7.93834 16.4962 7.74198C16.179 7.26592 15.7492 6.87557 15.2449 6.60558C14.7405 6.33559 14.1773 6.19432 13.6052 6.19432C13.0332 6.19432 12.47 6.33559 11.9657 6.60558C11.4613 6.87557 11.0315 7.26592 10.7142 7.74198C10.5834 7.93834 10.4061 8.09935 10.1981 8.21072C9.99003 8.32208 9.75772 8.38035 9.52175 8.38035C9.28579 8.38035 9.05348 8.32208 8.84544 8.21072C8.63741 8.09935 8.46009 7.93834 8.32925 7.74198C7.89013 7.08156 7.23787 6.59166 6.48125 6.35398C8.54625 3.56398 11.0262 2.04298 13.5512 2.04298ZM23.6363 12.319H3.46725C3.92132 10.9064 4.51737 9.54341 5.24625 8.25098C5.51217 8.21381 5.78318 8.25268 6.02793 8.36311C6.27268 8.47354 6.48115 8.651 6.62925 8.87498C6.94646 9.35103 7.37632 9.74139 7.88065 10.0114C8.38499 10.2814 8.94819 10.4226 9.52025 10.4226C10.0923 10.4226 10.6555 10.2814 11.1599 10.0114C11.6642 9.74139 12.094 9.35103 12.4112 8.87498C12.5421 8.67861 12.7194 8.5176 12.9274 8.40624C13.1355 8.29487 13.3678 8.2366 13.6038 8.2366C13.8397 8.2366 14.072 8.29487 14.2801 8.40624C14.4881 8.5176 14.6654 8.67861 14.7962 8.87498C15.1135 9.35103 15.5433 9.74139 16.0477 10.0114C16.552 10.2814 17.1152 10.4226 17.6872 10.4226C18.2593 10.4226 18.8225 10.2814 19.3269 10.0114C19.8312 9.74139 20.261 9.35103 20.5782 8.87498C20.7158 8.66604 20.9062 8.49728 21.1302 8.38591C21.3542 8.27454 21.6037 8.22453 21.8532 8.24098C22.5841 9.53642 23.1816 10.9028 23.6363 12.319V12.319ZM23.8512 25.264C23.4734 24.9807 23.0417 24.7775 22.5826 24.6668C22.1235 24.5561 21.6466 24.5401 21.1811 24.62C20.7157 24.6998 20.2714 24.8738 19.8754 25.1311C19.4795 25.3885 19.1402 25.724 18.8783 26.117C18.7474 26.3133 18.5701 26.4744 18.3621 26.5857C18.154 26.6971 17.9217 26.7553 17.6858 26.7553C17.4498 26.7553 17.2175 26.6971 17.0094 26.5857C16.8014 26.4744 16.6241 26.3133 16.4932 26.117C16.176 25.6409 15.7462 25.2506 15.2418 24.9806C14.7375 24.7106 14.1743 24.5693 13.6022 24.5693C13.0302 24.5693 12.467 24.7106 11.9627 24.9806C11.4583 25.2506 11.0285 25.6409 10.7113 26.117C10.5804 26.3133 10.4031 26.4744 10.1951 26.5857C9.98703 26.6971 9.75472 26.7553 9.51875 26.7553C9.28279 26.7553 9.05047 26.6971 8.84244 26.5857C8.63441 26.4744 8.4571 26.3133 8.32625 26.117C8.05957 25.7169 7.71276 25.3764 7.30775 25.1172C6.90273 24.8581 6.44833 24.6857 5.9733 24.6112C5.49826 24.5367 5.01293 24.5615 4.548 24.6842C4.08306 24.8069 3.64866 25.0248 3.27225 25.324C2.94955 24.4145 2.71121 23.4772 2.56025 22.524H24.5413C24.3935 23.4551 24.1626 24.3711 23.8512 25.261V25.264ZM2.35125 20.486C2.33458 20.1526 2.32592 19.8123 2.32525 19.465C2.32964 17.7486 2.52518 16.0381 2.90825 14.365H24.1973C24.5803 16.0381 24.7759 17.7486 24.7803 19.465C24.7803 19.8103 24.7716 20.1506 24.7542 20.486H2.35125ZM13.5512 32.801C11.6371 32.8425 9.74871 32.3535 8.09529 31.388C6.44187 30.4226 5.08789 29.0184 4.18325 27.331C4.20325 27.303 4.22425 27.276 4.24325 27.247C4.37409 27.0506 4.55141 26.8896 4.75944 26.7782C4.96747 26.6669 5.19979 26.6086 5.43575 26.6086C5.67172 26.6086 5.90403 26.6669 6.11206 26.7782C6.32009 26.8896 6.4974 27.0506 6.62825 27.247C6.94561 27.7228 7.37553 28.113 7.87984 28.3828C8.38416 28.6526 8.94728 28.7938 9.51925 28.7938C10.0912 28.7938 10.6543 28.6526 11.1587 28.3828C11.663 28.113 12.0929 27.7228 12.4102 27.247C12.5411 27.0506 12.7184 26.8896 12.9264 26.7782C13.1345 26.6669 13.3668 26.6086 13.6028 26.6086C13.8387 26.6086 14.071 26.6669 14.2791 26.7782C14.4871 26.8896 14.6644 27.0506 14.7952 27.247C15.1108 27.7239 15.5395 28.1154 16.043 28.3866C16.5466 28.6577 17.1093 28.8001 17.6813 28.801V28.801C18.2553 28.8025 18.8208 28.6615 19.327 28.3907C19.8331 28.1198 20.2641 27.7275 20.5813 27.249C20.7121 27.0526 20.8894 26.8916 21.0974 26.7802C21.3055 26.6689 21.5378 26.6106 21.7738 26.6106C22.0097 26.6106 22.242 26.6689 22.4501 26.7802C22.6581 26.8916 22.8354 27.0526 22.9662 27.249V27.249C22.0685 28.9584 20.7118 30.3836 19.0486 31.3644C17.3854 32.3452 15.4816 32.8427 13.5512 32.801V32.801Z" fill="#3D3D3D"/>
</svg>
