<svg width="42" height="42" viewBox="0 0 42 42" fill="none" xmlns="http://www.w3.org/2000/svg">
<path d="M26.3291 13.7481L26.1273 13.6484C25.9417 13.5558 25.7317 13.5236 25.5268 13.5565C25.322 13.5894 25.1327 13.6857 24.9853 13.8318L21.0315 17.787C20.8841 17.9333 20.7867 18.1226 20.7535 18.3276C20.7202 18.5326 20.7528 18.7429 20.8465 18.9283L20.9494 19.1288C21.2339 19.6962 21.6491 20.188 22.1609 20.5635C22.6727 20.9391 23.2663 21.1877 23.893 21.289C24.5197 21.3903 25.1614 21.3412 25.7654 21.146C26.3695 20.9507 26.9185 20.6149 27.3673 20.166C27.8162 19.7171 28.152 19.168 28.3472 18.564C28.5423 17.9599 28.5912 17.3181 28.4898 16.6914C28.3884 16.0648 28.1397 15.4712 27.764 14.9595C27.3884 14.4478 26.8965 14.0326 26.3291 13.7481V13.7481ZM25.9617 18.772C25.7618 18.9717 25.5225 19.1276 25.259 19.2298C24.9955 19.3319 24.7135 19.3781 24.4312 19.3654C24.1489 19.3526 23.8724 19.2813 23.6191 19.1558C23.3659 19.0304 23.1416 18.8535 22.9604 18.6366L25.8294 15.7709C26.0474 15.9514 26.2255 16.1753 26.3521 16.4285C26.4787 16.6817 26.551 16.9585 26.5646 17.2412C26.5782 17.5239 26.5327 17.8064 26.431 18.0705C26.3293 18.3347 26.1736 18.5747 25.9739 18.7752L25.9617 18.772Z" fill="#3D3D3D"/>
<path d="M18.3752 17.7859L14.4228 13.8329C14.2759 13.6855 14.0863 13.5882 13.8808 13.5548C13.6754 13.5214 13.4647 13.5537 13.2786 13.647L13.0789 13.7468C12.5097 14.0305 12.0163 14.4457 11.6392 14.9578C11.2622 15.4699 11.0124 16.0644 10.9105 16.6922C10.8086 17.3199 10.8574 17.9628 11.0531 18.5679C11.2488 19.173 11.5857 19.7229 12.0359 20.1721C13.8405 21.9607 17.1084 21.8314 18.5676 18.9304C18.6597 18.7436 18.6905 18.5325 18.656 18.3271C18.6214 18.1217 18.5233 17.9323 18.3752 17.7859ZM13.4316 18.7744C13.2334 18.5735 13.0793 18.3337 12.9788 18.07C12.8783 17.8063 12.8337 17.5246 12.8479 17.2427C12.862 16.9609 12.9345 16.6851 13.0609 16.4329C13.1873 16.1806 13.3648 15.9573 13.5821 15.7773L16.4488 18.6432C16.2673 18.8624 16.0418 19.0411 15.787 19.1677C15.5322 19.2944 15.2536 19.3663 14.9693 19.3786C14.685 19.391 14.4013 19.3436 14.1364 19.2396C13.8716 19.1355 13.6314 18.977 13.4316 18.7744V18.7744Z" fill="#3D3D3D"/>
<path d="M25.3908 9.8451C24.5598 9.22718 23.8853 8.42287 23.4217 7.49682C22.9581 6.57078 22.7183 5.5488 22.7216 4.5132C22.7203 4.38328 22.6933 4.25493 22.6422 4.13546C22.5911 4.016 22.5169 3.90776 22.4239 3.81705C22.3308 3.72634 22.2209 3.65494 22.1002 3.60687C21.9795 3.5588 21.8504 3.53505 21.7205 3.53699L17.7668 3.53468C17.5044 3.53542 17.2532 3.64032 17.0681 3.82628C16.8831 4.01225 16.7794 4.26409 16.78 4.52643C16.7828 5.56187 16.5425 6.5835 16.0786 7.5092C15.6147 8.4349 14.9399 9.23884 14.1088 9.85635C10.9522 10.4666 8.1059 12.1548 6.05661 14.632C4.00732 17.1093 2.8825 20.2216 2.87461 23.4366C2.87388 29.978 6.89409 35.2967 11.8362 35.2995C12.6874 35.2977 13.5308 35.1363 14.3226 34.8238C15.8714 36.4101 17.7702 37.2746 19.7441 37.2749C21.7179 37.2752 23.6167 36.4105 25.1702 34.8137C25.9609 35.1253 26.8029 35.2867 27.6528 35.2896C32.5927 35.2886 36.6154 29.9685 36.613 23.4263C36.6059 20.2128 35.4829 17.1016 33.436 14.6244C31.3891 12.1472 28.5453 10.4579 25.3908 9.8451V9.8451ZM18.7237 5.50398L20.8143 5.50626C20.9834 6.97746 21.5233 8.38166 22.3832 9.5873L17.1237 9.58752C17.9918 8.38236 18.5383 6.9758 18.7115 5.50071L18.7237 5.50398ZM27.6761 33.3154C26.878 33.3082 26.0932 33.1103 25.3872 32.738C25.1881 32.6381 24.961 32.6084 24.7428 32.6535C24.5247 32.6987 24.3282 32.8162 24.1851 32.9869C22.9355 34.4726 21.3683 35.2925 19.7698 35.2916C18.1714 35.2907 16.6027 34.4723 15.3534 32.9858C15.2102 32.8145 15.0132 32.6971 14.7944 32.6527C14.5756 32.6083 14.3482 32.6396 14.1496 32.7416C13.4432 33.1113 12.6593 33.3083 11.862 33.3163C8.02825 33.3168 4.87563 28.8146 4.87598 23.4313C4.888 20.2776 6.15082 17.2575 8.38718 15.0338C10.6235 12.8101 13.6507 11.5645 16.8044 11.5704L22.7337 11.567C25.8869 11.563 28.9131 12.8093 31.149 15.0327C33.3848 17.2562 34.6479 20.2754 34.6613 23.4286C34.651 28.8125 31.4977 33.3117 27.6639 33.3122L27.6761 33.3154Z" fill="#3D3D3D"/>
<path d="M29.639 23.4274L17.7792 23.4274C17.518 23.4244 17.2663 23.5251 17.0793 23.7074C16.8922 23.8897 16.7851 24.1387 16.7814 24.3999L16.7833 25.3792L14.8056 25.381L14.8037 24.4017C14.8041 24.2719 14.7788 24.1433 14.7293 24.0232C14.6798 23.9031 14.607 23.794 14.5152 23.7021C14.4234 23.6102 14.3144 23.5374 14.1944 23.4877C14.0744 23.4381 13.9458 23.4126 13.8159 23.4128L9.86217 23.4105C9.60011 23.4106 9.34886 23.5148 9.16345 23.7C8.97804 23.8852 8.87355 24.1363 8.87309 24.3983C8.87639 26.2325 9.60644 27.9906 10.9032 29.2877C12.2 30.5849 13.9578 31.3153 15.792 31.3191L21.7234 31.3195C21.9854 31.3193 22.2367 31.2152 22.4221 31.03C22.6075 30.8449 22.7118 30.5937 22.7123 30.3317L22.7074 29.3516L24.6873 29.3535L24.6856 30.0055C24.6856 30.1635 24.7235 30.3192 24.796 30.4595C24.8685 30.5999 24.9735 30.7208 25.1024 30.8122C25.232 30.9032 25.3813 30.9622 25.5381 30.9844C25.6949 31.0066 25.8548 30.9913 26.0046 30.9397C27.3531 30.4604 28.5202 29.5754 29.3458 28.4064C30.1713 27.2373 30.6149 25.8413 30.6155 24.4101C30.6146 24.1509 30.5116 23.9024 30.3288 23.7185C30.1461 23.5346 29.8982 23.43 29.639 23.4274V23.4274ZM26.683 28.3711C26.6829 28.2414 26.6573 28.113 26.6076 27.9933C26.5578 27.8735 26.485 27.7647 26.3932 27.6731C26.3014 27.5816 26.1923 27.509 26.0724 27.4596C25.9525 27.4102 25.824 27.3849 25.6944 27.3852L21.7406 27.3829C21.4788 27.3839 21.228 27.4882 21.0428 27.6732C20.8576 27.8582 20.753 28.1089 20.7517 28.3707L20.7566 29.3508L15.8137 29.351C14.6749 29.3495 13.5715 28.9554 12.6894 28.2353C11.8073 27.5152 11.2002 26.513 10.9707 25.3976L12.8467 25.3978L12.8486 26.3771C12.8494 26.6396 12.9541 26.891 13.1398 27.0765C13.3255 27.262 13.5771 27.3664 13.8395 27.3669L17.791 27.3653C17.9208 27.3657 18.0496 27.3404 18.1697 27.2909C18.2898 27.2414 18.3988 27.1686 18.4907 27.0768C18.5826 26.985 18.6554 26.876 18.7051 26.756C18.7547 26.636 18.7802 26.5074 18.78 26.3775L18.7792 25.3822L28.564 25.3939C28.3172 26.5784 27.6462 27.632 26.6772 28.3565L26.683 28.3711Z" fill="#3D3D3D"/>
</svg>
