<svg width="35" height="31" viewBox="0 0 35 31" fill="none" xmlns="http://www.w3.org/2000/svg">
<path d="M26.649 18.78C26.8249 12.4661 27.5699 6.18099 28.875 0.000976562H5.969C7.27143 6.1814 8.01609 12.4663 8.194 18.78C4.837 19.165 0 20.087 0 23.48C0 29.034 11.82 30.626 17.422 30.626C23.024 30.626 34.844 29.037 34.844 23.48C34.843 20.087 30.006 19.165 26.649 18.78ZM10.224 18.38H24.624C24.59 19.4686 24.5727 20.557 24.572 21.645V23.945C22.209 24.324 19.8192 24.512 17.426 24.507C15.0328 24.512 12.643 24.324 10.28 23.945V21.645C10.28 20.557 10.2627 19.4686 10.228 18.38H10.224ZM20.484 16.338H18.443V2.04298H21.332C20.7693 5.78773 20.4862 9.56918 20.485 13.356L20.484 16.338ZM16.401 16.338H14.359V13.356C14.3578 9.56918 14.0747 5.78773 13.512 2.04298H16.4L16.401 16.338ZM24.701 16.338H22.526V13.356C22.527 9.56831 22.8179 5.78626 23.396 2.04298H26.396C25.509 6.76294 24.9424 11.5375 24.7 16.334L24.701 16.338ZM11.447 2.04298C12.0251 5.78626 12.316 9.56831 12.317 13.356V16.334H10.141C9.90062 11.5376 9.336 6.76308 8.451 2.04298H11.447ZM17.421 28.584C11.157 28.584 2.041 26.672 2.041 23.484C2.041 21.709 6.482 21.047 8.23 20.836C8.23 21.105 8.23 25.644 8.23 25.644C11.2532 26.2596 14.3318 26.5612 17.417 26.544C20.5022 26.5611 23.5808 26.2595 26.604 25.644C26.604 25.644 26.604 21.106 26.604 20.836C28.352 21.047 32.793 21.709 32.793 23.484C32.8 27.19 21.792 28.584 17.422 28.584H17.421Z" fill="#3D3D3D"/>
<path d="M13.3398 19.9912L14.7838 21.4351L13.3398 22.879L11.8959 21.4351L13.3398 19.9912Z" fill="#3D3D3D"/>
<path d="M17.4219 19.9902L18.8658 21.4341L17.4219 22.878L15.9779 21.4341L17.4219 19.9902Z" fill="#3D3D3D"/>
<path d="M21.5039 19.9902L22.9478 21.4341L21.5039 22.878L20.06 21.4341L21.5039 19.9902Z" fill="#3D3D3D"/>
</svg>
