<svg width="41" height="23" viewBox="0 0 41 23" fill="none" xmlns="http://www.w3.org/2000/svg">
<path d="M41 10.5874C41 8.20172 39.0447 6.22574 36.5218 5.92774C35.144 4.44203 30.2235 0.00244141 20.624 0.00244141C10.9967 0.00244141 5.90317 4.46676 4.49592 5.92572C1.96455 6.21678 0 8.19643 0 10.5874C0 12.6686 1.4887 14.437 3.54367 15.0526L4.34793 17.8885C5.00214 20.1954 7.55725 22.0024 10.165 22.0024H31.0828C33.6905 22.0024 36.2455 20.1954 36.8999 17.8885L37.7297 14.9626C39.6418 14.2772 41 12.5751 41 10.5874ZM31.0828 19.624H10.165C8.76061 19.624 7.21945 18.5341 6.86702 17.2917L6.26582 15.1722C7.33362 14.9535 8.27703 14.4307 8.98079 13.7084C9.92297 14.6756 11.2954 15.2858 12.8204 15.2858C14.3456 15.2858 15.7178 14.6756 16.6601 13.7084C17.6025 14.6756 18.9747 15.2858 20.4999 15.2858C22.025 15.2858 23.3972 14.6756 24.3396 13.7084C25.282 14.6756 26.6543 15.2858 28.1793 15.2858C29.7046 15.2858 31.0768 14.6756 32.0191 13.7084C32.774 14.4833 33.8053 15.028 34.9695 15.2144L34.3804 17.2916C34.0283 18.5341 32.4872 19.624 31.0828 19.624ZM35.8591 12.9075C34.4593 12.9075 33.3206 11.8668 33.3206 10.5874C33.3206 9.93068 32.7379 9.39814 32.0193 9.39814C31.3008 9.39814 30.7181 9.93068 30.7181 10.5874C30.7181 11.8668 29.5792 12.9075 28.1794 12.9075C26.7796 12.9075 25.6407 11.8668 25.6407 10.5874C25.6407 9.93068 25.0582 9.39814 24.3396 9.39814C23.621 9.39814 23.0384 9.93068 23.0384 10.5874C23.0384 11.8668 21.8995 12.9075 20.4997 12.9075C19.0999 12.9075 17.961 11.8668 17.961 10.5874C17.961 9.93068 17.3785 9.39814 16.6598 9.39814C15.9413 9.39814 15.3587 9.93068 15.3587 10.5874C15.3587 11.8668 14.2198 12.9075 12.82 12.9075C11.4202 12.9075 10.2815 11.8668 10.2815 10.5874C10.2815 9.93068 9.69878 9.39814 8.98024 9.39814C8.26171 9.39814 7.67901 9.93068 7.67901 10.5874C7.67901 11.8668 6.54026 12.9075 5.14032 12.9075C3.74053 12.9075 2.60177 11.8668 2.60177 10.5874C2.60177 9.30806 3.74053 8.26733 5.14032 8.26733C5.54991 8.26733 5.93893 8.08704 6.18465 7.78753C6.19569 7.77403 7.32616 6.41385 9.66206 5.07626C12.7852 3.28763 16.4732 2.38089 20.6231 2.38089C24.7651 2.38089 28.4062 3.2841 31.4449 5.06554C33.7155 6.39669 34.7844 7.74993 34.7916 7.75927C35.0351 8.07758 35.4332 8.26733 35.8583 8.26733C37.2581 8.26733 38.3968 9.30806 38.3968 10.5874C38.3975 11.8668 37.2588 12.9075 35.8591 12.9075Z" fill="#3D3D3D"/>
<path d="M20.6244 2.94581C19.9058 2.94581 19.3231 3.47835 19.3231 4.13504V6.09727C19.3231 6.75395 19.9058 7.28649 20.6244 7.28649C21.3429 7.28649 21.9256 6.75395 21.9256 6.09727V4.13491C21.9254 3.47822 21.3428 2.94581 20.6244 2.94581Z" fill="#3D3D3D"/>
<path d="M16.3994 3.45301C15.849 3.03074 15.028 3.09634 14.5664 3.59961L13.1861 5.10273C12.7241 5.60575 12.7959 6.35605 13.3465 6.77807C13.5903 6.96491 13.8871 7.05626 14.1822 7.05626C14.5535 7.05626 14.9223 6.9118 15.1797 6.63146L16.5599 5.12834C17.0217 4.6252 16.9499 3.87515 16.3994 3.45301Z" fill="#3D3D3D"/>
<path d="M26.6815 3.60017C26.2195 3.09691 25.3988 3.03155 24.8485 3.45357C24.298 3.87572 24.2262 4.62576 24.6881 5.1289L26.0683 6.63202C26.3258 6.91249 26.6944 7.05682 27.0659 7.05682C27.361 7.05682 27.6578 6.96547 27.9016 6.77863C28.4521 6.35648 28.5239 5.60631 28.062 5.10329L26.6815 3.60017Z" fill="#3D3D3D"/>
</svg>
