<svg width="35" height="34" viewBox="0 0 35 34" fill="none" xmlns="http://www.w3.org/2000/svg">
<path d="M34.5439 0.301223C34.438 0.195221 34.3101 0.113835 34.1693 0.0628495C34.0284 0.0118639 33.8781 -0.00746942 33.7289 0.00622316L29.6989 0.374223C29.4338 0.404462 29.191 0.53729 29.0226 0.744273C28.8542 0.951255 28.7735 1.21594 28.7978 1.48167C28.8221 1.7474 28.9495 1.99305 29.1527 2.16604C29.3559 2.33902 29.6187 2.4256 29.8849 2.40722L31.1049 2.29622L29.7359 3.66522C27.8503 2.2639 25.5622 1.50973 23.2129 1.51522H23.1749C21.3049 1.51896 19.467 2.0009 17.8359 2.91522C16.2044 2.00074 14.3662 1.51879 12.4959 1.51522H12.4589C10.3143 1.51521 8.2166 2.14242 6.42403 3.3196C4.63145 4.49678 3.2223 6.17254 2.37011 8.1405C1.51793 10.1085 1.25991 12.2827 1.62785 14.3954C1.99578 16.5082 2.9736 18.4672 4.44088 20.0312L4.44788 20.0382L8.09888 23.9282L7.51788 24.5092L4.59888 25.0092C4.3901 25.0448 4.19754 25.1444 4.04788 25.2942L0.298881 29.0382C0.165865 29.1713 0.0722092 29.3385 0.0282527 29.5215C-0.0157037 29.7044 -0.00825099 29.896 0.0497882 30.075C0.107827 30.2539 0.214196 30.4134 0.35715 30.5357C0.500104 30.6581 0.674083 30.7385 0.859881 30.7682L2.44888 31.0212L2.69888 32.6102C2.7284 32.7962 2.80874 32.9703 2.93104 33.1134C3.05334 33.2565 3.21283 33.3631 3.39188 33.4212C3.57108 33.4775 3.7622 33.4841 3.94484 33.4402C4.12749 33.3964 4.29479 33.3038 4.42888 33.1722L8.17688 29.4242C8.32673 29.2746 8.42633 29.082 8.46188 28.8732L8.96188 25.9542L9.49888 25.4182L14.9909 31.2702C15.3562 31.66 15.7976 31.9708 16.2878 32.1832C16.7781 32.3956 17.3066 32.5052 17.8409 32.5052C18.3751 32.5052 18.9037 32.3956 19.3939 32.1832C19.8841 31.9708 20.3255 31.66 20.6909 31.2702L31.2309 20.0312C33.1372 18.0008 34.2007 15.3218 34.2059 12.5367C34.2111 9.75168 33.1576 7.06872 31.2589 5.03122L32.5489 3.74122L32.4379 4.96122C32.4134 5.2308 32.497 5.49905 32.6703 5.70701C32.8436 5.91497 33.0923 6.04561 33.3619 6.07022C33.3939 6.07022 33.4249 6.07022 33.4559 6.07022C33.7103 6.06978 33.9553 5.9744 34.1431 5.80275C34.3308 5.6311 34.4477 5.39555 34.4709 5.14222L34.8389 1.11222C34.8519 0.963703 34.8322 0.814132 34.7813 0.674023C34.7303 0.533914 34.6493 0.406667 34.5439 0.301223V0.301223ZM6.50588 28.2102L4.40588 30.3102L4.35088 29.9662C4.31706 29.7535 4.21682 29.5569 4.0645 29.4046C3.91219 29.2523 3.71561 29.152 3.50288 29.1182L3.15888 29.0632L5.25888 26.9632L6.75888 26.7082L6.50588 28.2102ZM32.1649 12.5102C32.1685 14.7863 31.3017 16.9776 29.7419 18.6352L19.1989 29.8732C19.0245 30.0589 18.8139 30.207 18.58 30.3081C18.3462 30.4093 18.0942 30.4615 17.8394 30.4615C17.5846 30.4615 17.3325 30.4093 17.0987 30.3081C16.8649 30.207 16.6543 30.0589 16.4799 29.8732L5.92988 18.6342L5.92288 18.6272C4.73242 17.352 3.94019 15.757 3.64346 14.0379C3.34673 12.3188 3.55841 10.5505 4.2525 8.95005C4.9466 7.34957 6.09291 5.98658 7.55071 5.02841C9.00852 4.07023 10.7144 3.55857 12.4589 3.55622H12.4889C14.1784 3.5596 15.8322 4.04267 17.2579 4.94922C17.4234 5.06257 17.6187 5.12464 17.8193 5.12766C18.0199 5.13069 18.217 5.07453 18.3859 4.96622C19.8186 4.04773 21.4841 3.55814 23.1859 3.55522H23.2169C25.0243 3.55125 26.7899 4.09975 28.2769 5.12722L25.2419 8.16222C24.3761 7.59156 23.3554 7.30173 22.3189 7.33222C22.1849 7.33662 22.053 7.36737 21.9309 7.42272C21.8088 7.47807 21.6987 7.55694 21.6071 7.65481C21.5154 7.75268 21.444 7.86765 21.3967 7.99314C21.3495 8.11864 21.3275 8.25221 21.3319 8.38622C21.3363 8.52024 21.367 8.65207 21.4224 8.7742C21.4777 8.89633 21.5566 9.00636 21.6545 9.09801C21.7523 9.18967 21.8673 9.26114 21.9928 9.30836C22.1183 9.35558 22.2519 9.37762 22.3859 9.37322C22.7953 9.35928 23.2032 9.42964 23.5843 9.57995C23.9654 9.73025 24.3115 9.95728 24.6012 10.2469C24.8908 10.5366 25.1179 10.8827 25.2682 11.2638C25.4185 11.6449 25.4888 12.0528 25.4749 12.4622C25.4705 12.5962 25.4925 12.7298 25.5397 12.8553C25.5869 12.9808 25.6584 13.0958 25.7501 13.1937C25.8417 13.2915 25.9518 13.3704 26.0739 13.4257C26.196 13.4811 26.3279 13.5118 26.4619 13.5162H26.4959C26.7609 13.5161 27.0154 13.413 27.2058 13.2286C27.3961 13.0442 27.5073 12.7931 27.5159 12.5282C27.5358 11.9299 27.4488 11.3329 27.2589 10.7652C27.1211 10.3539 26.9298 9.96259 26.6899 9.60122L29.8199 6.47122C31.334 8.11679 32.1714 10.2731 32.1649 12.5092V12.5102Z" fill="#3D3D3D"/>
</svg>
