<svg width="100" height="100" viewBox="0 0 100 100" fill="none" xmlns="http://www.w3.org/2000/svg">
<path d="M38.6113 62.0697L31.9603 59.2437C31.5547 59.0713 31.0972 59.0671 30.6884 59.2321C30.2797 59.397 29.9532 59.7175 29.7808 60.1232C29.6084 60.5288 29.6042 60.9864 29.7692 61.3951C29.9341 61.8038 30.2547 62.1303 30.6603 62.3027L37.3113 65.1287C37.717 65.3011 38.1745 65.3053 38.5832 65.1403C38.992 64.9754 39.3184 64.6549 39.4908 64.2492C39.6632 63.8436 39.6674 63.386 39.5025 62.9773C39.3375 62.5686 39.017 62.2421 38.6113 62.0697V62.0697Z" fill="#FE6458"/>
<path d="M76.181 34.56C76.1794 34.3871 76.1514 34.2155 76.098 34.051C76.0543 33.9631 76.0021 33.8797 75.942 33.802C75.905 33.742 75.879 33.689 75.842 33.636C75.6655 33.3969 75.4259 33.2116 75.15 33.101C75.14 33.101 75.137 33.088 75.127 33.084L48.521 23.111C48.1217 22.9554 47.6772 22.9637 47.284 23.134L24.008 33.107C23.985 33.117 23.975 33.144 23.951 33.154C23.7207 33.2682 23.5212 33.4359 23.369 33.643C23.3232 33.7003 23.2812 33.7604 23.243 33.823C23.2026 33.8737 23.1658 33.9271 23.133 33.983C23.0456 34.1886 23.0004 34.4096 23 34.633V64.564C23.0008 64.8889 23.0967 65.2064 23.2758 65.4773C23.455 65.7483 23.7095 65.961 24.008 66.089L47.284 76.069C47.4901 76.157 47.7119 76.2023 47.936 76.202C48.1357 76.2016 48.3338 76.1657 48.521 76.096L48.581 76.073L75.12 66.12C75.437 66.0015 75.7103 65.789 75.9033 65.5109C76.0963 65.2329 76.1998 64.9025 76.2 64.564V34.636C76.2 34.606 76.181 34.589 76.181 34.56ZM46.281 72.016L26.325 63.466V37.16L46.277 45.709L46.281 72.016ZM47.981 42.816L28.886 34.636L47.98 26.456L69.807 34.636L64.6 36.589L55.269 32.409C55.0379 32.3047 54.7857 32.2555 54.5323 32.2654C54.2789 32.2753 54.0313 32.344 53.809 32.466L47.288 35.236C46.9857 35.3649 46.7283 35.5801 46.5479 35.8547C46.3675 36.1293 46.2722 36.4511 46.274 36.7797C46.2759 37.1082 46.3747 37.429 46.5581 37.7016C46.7415 37.9742 47.0013 38.1865 47.305 38.312L53.354 40.812L47.981 42.816ZM59.581 42.016L62.9 40.775V48.875L59.575 50.122L59.581 42.016ZM57.922 39.089L52.236 36.745L54.59 35.745L60.176 38.245L57.922 39.089ZM72.879 63.41L49.6 72.139V45.763L56.251 43.269V52.527C56.2509 52.7455 56.2938 52.9618 56.3774 53.1637C56.461 53.3655 56.5836 53.5489 56.7382 53.7032C56.8928 53.8576 57.0763 53.98 57.2782 54.0634C57.4801 54.1467 57.6965 54.1894 57.915 54.189C58.1147 54.1883 58.3127 54.1525 58.5 54.083L65.151 51.589C65.4672 51.4697 65.7397 51.2569 65.932 50.9789C66.1244 50.701 66.2277 50.3711 66.228 50.033V39.533L72.879 37.039V63.41Z" fill="#FE6458"/>
</svg>
