<svg width="100" height="100" viewBox="0 0 100 100" fill="none" xmlns="http://www.w3.org/2000/svg">
<path d="M72.091 31H33.114C31.2279 31.0021 29.4197 31.7523 28.086 33.086C26.7523 34.4197 26.0021 36.2279 26 38.114V61.487C26.0021 63.3731 26.7523 65.1813 28.086 66.515C29.4197 67.8487 31.2279 68.5989 33.114 68.601H72.091C73.9771 68.5989 75.7853 67.8487 77.119 66.515C78.4527 65.1813 79.2029 63.3731 79.205 61.487V38.114C79.2029 36.2279 78.4527 34.4197 77.119 33.086C75.7853 31.7523 73.9771 31.0021 72.091 31V31ZM75.735 61.487C75.7339 62.4531 75.3497 63.3794 74.6665 64.0625C73.9834 64.7457 73.0571 65.1299 72.091 65.131H33.114C32.1479 65.1299 31.2216 64.7457 30.5385 64.0625C29.8553 63.3794 29.4711 62.4531 29.47 61.487V43.455H75.735V61.487ZM75.735 39.987H29.47V38.114C29.4711 37.1479 29.8553 36.2216 30.5385 35.5385C31.2216 34.8553 32.1479 34.4711 33.114 34.47H72.09C73.0561 34.4711 73.9824 34.8553 74.6655 35.5385C75.3487 36.2216 75.7329 37.1479 75.734 38.114V39.986L75.735 39.987Z" fill="#FE6458"/>
<path d="M67.1994 48.0615C66.2153 48.0598 65.2433 48.2792 64.3554 48.7035C63.3476 48.2239 62.2347 48.0073 61.1205 48.0738C60.0064 48.1402 58.9272 48.4877 57.9835 49.0837C57.0398 49.6797 56.2624 50.5049 55.7236 51.4824C55.1849 52.4599 54.9023 53.5579 54.9023 54.674C54.9023 55.7902 55.1849 56.8881 55.7236 57.8656C56.2624 58.8431 57.0398 59.6683 57.9835 60.2644C58.9272 60.8604 60.0064 61.2078 61.1205 61.2743C62.2347 61.3408 63.3476 61.1241 64.3554 60.6445C65.2513 61.0714 66.2317 61.2911 67.224 61.2875C68.2163 61.2839 69.1951 61.057 70.0878 60.6236C70.9805 60.1902 71.7643 59.5615 72.3809 58.7841C72.9976 58.0066 73.4314 57.1003 73.6501 56.1324C73.8689 55.1645 73.867 54.1598 73.6447 53.1927C73.4223 52.2256 72.9852 51.3209 72.3656 50.5458C71.746 49.7706 70.96 49.1448 70.0657 48.7148C69.1714 48.2847 68.1917 48.0615 67.1994 48.0615V48.0615ZM67.1994 57.8165C66.5421 57.8178 65.9013 57.6113 65.3684 57.2265L64.3554 56.4975L63.3424 57.2265C62.8729 57.5635 62.3196 57.7645 61.7432 57.8074C61.1669 57.8502 60.5899 57.7333 60.0757 57.4695C59.5616 57.2056 59.1301 56.8051 58.8289 56.3119C58.5276 55.8187 58.3682 55.252 58.3682 54.674C58.3682 54.0961 58.5276 53.5294 58.8289 53.0362C59.1301 52.543 59.5616 52.1424 60.0757 51.8786C60.5899 51.6147 61.1669 51.4978 61.7432 51.5407C62.3196 51.5836 62.8729 51.7845 63.3424 52.1215L64.3554 52.8505L65.3684 52.1215C65.7709 51.8344 66.2355 51.6464 66.7244 51.5727C67.2132 51.4989 67.7126 51.5416 68.1819 51.6972C68.6512 51.8529 69.0771 52.117 69.425 52.4683C69.773 52.8195 70.0331 53.2479 70.1843 53.7186C70.3355 54.1893 70.3735 54.6891 70.2952 55.1772C70.2169 55.6654 70.0245 56.1282 69.7336 56.528C69.4428 56.9278 69.0617 57.2533 68.6213 57.4781C68.181 57.7028 67.6938 57.8205 67.1994 57.8215V57.8165Z" fill="#FE6458"/>
<path d="M45.3949 49.7578H33.1289V53.2278H45.3949V49.7578Z" fill="#FE6458"/>
<path d="M49.3219 56.1279H33.1289V59.5979H49.3219V56.1279Z" fill="#FE6458"/>
</svg>
