<svg width="100" height="100" viewBox="0 0 100 100" fill="none" xmlns="http://www.w3.org/2000/svg">
<path d="M38.9211 67.4405C38.9213 66.5684 38.7417 65.7056 38.3934 64.9061C38.0452 64.1065 37.5358 63.3873 36.8971 62.7935V62.7845C37.0101 61.2275 37.0971 59.5845 37.1701 57.8935C40.4261 58.5065 42.7331 59.7415 44.0391 61.5745C44.6069 62.4415 44.9934 63.4145 45.1754 64.4348C45.3574 65.4551 45.3311 66.5017 45.0981 67.5115C44.942 68.1343 44.9128 68.7821 45.0122 69.4164C45.1115 70.0507 45.3374 70.6585 45.6765 71.2037C46.0155 71.7489 46.4607 72.2204 46.9857 72.5901C47.5106 72.9597 48.1045 73.22 48.7321 73.3555C50.2453 73.6481 51.7828 73.7961 53.3241 73.7975C59.6379 73.7567 65.6818 71.2316 70.148 66.7685C74.6143 62.3054 77.1437 56.2633 77.1891 49.9495C77.1891 36.5265 65.5191 25.5755 53.3271 26.0135C46.6661 26.2525 40.6801 29.5345 36.5531 33.1455C36.5004 32.6562 36.4451 32.1782 36.3871 31.7115C36.1793 29.7739 35.8239 27.855 35.3241 25.9715C35.0471 25.0245 34.3981 22.8115 32.5611 22.8115C30.7241 22.8115 30.0741 25.0245 29.7971 25.9695C29.2972 27.8537 28.9418 29.7733 28.7341 31.7115C28.0632 37.7675 27.748 43.8576 27.7901 49.9505C27.7901 54.4365 27.9401 58.8745 28.2231 62.7865V62.7955C27.5843 63.3893 27.0749 64.1085 26.7266 64.908C26.3784 65.7076 26.1988 66.5704 26.1991 67.4425V70.7285C26.1743 71.5825 25.8171 72.3932 25.2035 72.9877C24.5899 73.5822 23.7684 73.9137 22.9141 73.9115V77.0915H29.3801C31.9218 77.0688 34.3515 76.0418 36.1389 74.2345C37.9263 72.4272 38.9264 69.9864 38.9211 67.4445V67.4405ZM53.4421 29.1915C63.6871 28.8245 74.0141 38.1785 74.0141 49.9485C73.9917 52.9961 73.3 56.0015 71.9877 58.7522C70.6754 61.5028 68.7748 63.9315 66.4201 65.8664C64.0655 67.8013 61.3144 69.1951 58.3615 69.9492C55.4087 70.7034 52.3261 70.7994 49.3321 70.2305C49.1234 70.1739 48.9281 70.0761 48.7578 69.9429C48.5874 69.8097 48.4454 69.6439 48.34 69.455C48.2346 69.2662 48.1681 69.0582 48.1442 68.8433C48.1204 68.6284 48.1397 68.4109 48.2011 68.2035C48.5384 66.7591 48.573 65.2605 48.3027 63.8021C48.0323 62.3436 47.4628 60.957 46.6301 59.7295C44.7631 57.1115 41.6191 55.4115 37.2751 54.6815C37.3121 53.1235 37.3311 49.8305 37.3311 49.7705C37.9714 50.5121 38.8246 51.0386 39.7746 51.2782C40.7247 51.5179 41.7255 51.4592 42.641 51.1101C43.5565 50.761 44.3423 50.1385 44.8915 49.3271C45.4408 48.5157 45.7268 47.5548 45.7108 46.5752C45.6948 45.5955 45.3775 44.6445 44.802 43.8515C44.2265 43.0585 43.4208 42.462 42.4943 42.143C41.5679 41.824 40.5657 41.7981 39.624 42.0687C38.6823 42.3393 37.8468 42.8934 37.2311 43.6555C37.1601 41.3965 37.0511 39.2295 36.9071 37.2045C40.5071 33.4045 46.5891 29.4365 53.4381 29.1905L53.4421 29.1915ZM39.4091 46.2455C39.4904 45.9417 39.66 45.6689 39.8965 45.4615C40.1329 45.2541 40.4255 45.1215 40.7373 45.0804C41.0491 45.0393 41.3661 45.0917 41.6482 45.2308C41.9302 45.3699 42.1647 45.5895 42.322 45.8619C42.4792 46.1342 42.5521 46.4471 42.5315 46.7609C42.5109 47.0748 42.3977 47.3754 42.2062 47.6249C42.0148 47.8744 41.7536 48.0615 41.4558 48.1625C41.1579 48.2636 40.8368 48.274 40.5331 48.1925C40.3314 48.1386 40.1423 48.0454 39.9766 47.9183C39.811 47.7912 39.672 47.6328 39.5676 47.452C39.4632 47.2711 39.3955 47.0715 39.3683 46.8645C39.3411 46.6575 39.3549 46.4472 39.4091 46.2455ZM31.7331 33.4585C31.9097 31.6242 32.1857 29.8009 32.5601 27.9965C32.9344 29.8009 33.2105 31.6242 33.3871 33.4585C33.9217 38.9386 34.1763 44.4425 34.1501 49.9485C34.1501 50.4819 34.1481 51.0119 34.1441 51.5385H30.9771C30.9731 51.0099 30.9711 50.4799 30.9711 49.9485C30.9448 44.4425 31.1995 38.9386 31.7341 33.4585H31.7331ZM31.0331 54.7175H34.0981C34.0441 56.9635 33.9511 59.1465 33.8221 61.2045C32.9927 61.0375 32.1384 61.0375 31.3091 61.2045C31.1761 59.1475 31.0831 56.9645 31.0281 54.7185L31.0331 54.7175ZM29.3801 70.7265V67.4405C29.3801 66.5971 29.7151 65.7883 30.3115 65.1919C30.9078 64.5956 31.7167 64.2605 32.5601 64.2605C33.4035 64.2605 34.2123 64.5956 34.8087 65.1919C35.405 65.7883 35.7401 66.5971 35.7401 67.4405C35.7534 69.1416 35.0911 70.7785 33.8987 71.9917C32.7063 73.2049 31.0811 73.8954 29.3801 73.9115H28.5051C29.0799 72.9487 29.3823 71.8479 29.3801 70.7265V70.7265Z" fill="#FE6458"/>
<path d="M65.6 44.3274C66.2671 43.6603 66.7214 42.8103 66.9054 41.8851C67.0894 40.9598 66.9949 40.0007 66.6339 39.1291C66.2729 38.2575 65.6615 37.5126 64.8771 36.9884C64.0927 36.4643 63.1704 36.1846 62.227 36.1846C61.2836 36.1846 60.3614 36.4643 59.577 36.9884C58.7926 37.5126 58.1812 38.2575 57.8202 39.1291C57.4591 40.0007 57.3646 40.9598 57.5487 41.8851C57.7327 42.8103 58.187 43.6603 58.854 44.3274C59.2968 44.7706 59.8226 45.1222 60.4014 45.362C60.9801 45.6019 61.6005 45.7254 62.227 45.7254C62.8535 45.7254 63.4739 45.6019 64.0527 45.362C64.6314 45.1222 65.1572 44.7706 65.6 44.3274ZM61.1 39.8274C61.3224 39.6051 61.6057 39.4537 61.9141 39.3924C62.2226 39.3311 62.5422 39.3626 62.8327 39.483C63.1232 39.6033 63.3715 39.8071 63.5462 40.0686C63.7209 40.33 63.8141 40.6374 63.8141 40.9519C63.8141 41.2663 63.7209 41.5737 63.5462 41.8352C63.3715 42.0966 63.1232 42.3004 62.8327 42.4208C62.5422 42.5412 62.2226 42.5727 61.9141 42.5114C61.6057 42.4501 61.3224 42.2987 61.1 42.0764C60.8034 41.7778 60.6371 41.3739 60.6374 40.953C60.6378 40.5321 60.8049 40.1284 61.102 39.8304L61.1 39.8274Z" fill="#FE6458"/>
<path d="M51.1725 42.2691C52.0838 42.0249 52.9022 41.516 53.5242 40.8067C54.1463 40.0974 54.544 39.2196 54.6672 38.2843C54.7903 37.3489 54.6333 36.3981 54.2161 35.552C53.7988 34.7058 53.1401 34.0024 52.323 33.5307C51.506 33.059 50.5675 32.8401 49.6261 32.9018C48.6847 32.9635 47.7827 33.303 47.0342 33.8773C46.2858 34.4516 45.7244 35.2349 45.4211 36.1283C45.1179 37.0216 45.0863 37.9848 45.3305 38.8961C45.6593 40.1172 46.459 41.158 47.5541 41.7904C48.6493 42.4227 49.9506 42.5948 51.1725 42.2691V42.2691ZM49.5305 36.1251C49.8342 36.0436 50.1553 36.0541 50.4532 36.1551C50.751 36.2561 51.0122 36.4432 51.2037 36.6927C51.3952 36.9422 51.5084 37.2429 51.529 37.5567C51.5496 37.8705 51.4766 38.1834 51.3194 38.4558C51.1621 38.7281 50.9277 38.9478 50.6456 39.0868C50.3635 39.2259 50.0465 39.2783 49.7347 39.2372C49.4229 39.1961 49.1303 39.0635 48.8939 38.8561C48.6574 38.6487 48.4878 38.3759 48.4065 38.0721C48.298 37.6649 48.3554 37.2312 48.5661 36.8663C48.7768 36.5013 49.1236 36.2348 49.5305 36.1251V36.1251Z" fill="#FE6458"/>
<path d="M51.919 63.4664C52.1632 64.3777 52.6721 65.1961 53.3813 65.8182C54.0906 66.4402 54.9685 66.838 55.9038 66.9611C56.8391 67.0843 57.79 66.9273 58.6361 66.51C59.4823 66.0928 60.1857 65.434 60.6574 64.617C61.1291 63.8 61.348 62.8614 61.2863 61.92C61.2246 60.9786 60.8851 60.0766 60.3108 59.3282C59.7365 58.5797 58.9532 58.0183 58.0598 57.7151C57.1665 57.4118 56.2033 57.3803 55.292 57.6244C54.0709 57.9532 53.03 58.7529 52.3977 59.8481C51.7654 60.9433 51.5932 62.2445 51.919 63.4664V63.4664ZM56.119 60.6954C56.4227 60.614 56.7438 60.6245 57.0415 60.7255C57.3393 60.8266 57.6004 61.0136 57.7919 61.2631C57.9834 61.5125 58.0966 61.8131 58.1172 62.1269C58.1378 62.4406 58.065 62.7535 57.9078 63.0259C57.7507 63.2982 57.5163 63.5179 57.2343 63.657C56.9523 63.7962 56.6354 63.8486 56.3237 63.8077C56.0119 63.7668 55.7192 63.6343 55.4827 63.427C55.2463 63.2198 55.0765 62.9471 54.995 62.6434C54.8864 62.2371 54.9434 61.8044 55.1533 61.44C55.3632 61.0756 55.709 60.8093 56.115 60.6994L56.119 60.6954Z" fill="#FE6458"/>
<path d="M60.9125 52.0078C60.6684 52.9191 60.6999 53.8823 61.0032 54.7756C61.3064 55.669 61.8678 56.4523 62.6163 57.0266C63.3647 57.601 64.2667 57.9404 65.2081 58.0021C66.1495 58.0638 67.088 57.8449 67.9051 57.3732C68.7221 56.9015 69.3808 56.1981 69.7981 55.352C70.2153 54.5058 70.3723 53.555 70.2492 52.6196C70.126 51.6843 69.7283 50.8065 69.1062 50.0972C68.4842 49.3879 67.6658 48.879 66.7545 48.6348C65.5326 48.3091 64.2313 48.4812 63.1362 49.1135C62.041 49.7459 61.2413 50.7867 60.9125 52.0078V52.0078ZM67.0565 53.6538C66.9752 53.9576 66.8056 54.2305 66.5691 54.4379C66.3327 54.6452 66.04 54.7779 65.7282 54.8189C65.4164 54.86 65.0995 54.8077 64.8174 54.6686C64.5353 54.5295 64.3009 54.3099 64.1436 54.0375C63.9864 53.7651 63.9134 53.4522 63.934 53.1384C63.9546 52.8246 64.0678 52.5239 64.2593 52.2744C64.4508 52.025 64.712 51.8379 65.0098 51.7368C65.3077 51.6358 65.6287 51.6254 65.9325 51.7068C66.1341 51.7609 66.3231 51.8541 66.4886 51.9813C66.6542 52.1084 66.7931 52.2669 66.8974 52.4477C67.0017 52.6285 67.0693 52.8281 67.0964 53.035C67.1236 53.242 67.1097 53.4522 67.0555 53.6538H67.0565Z" fill="#FE6458"/>
</svg>
