<svg width="141" height="46" viewBox="0 0 141 46" fill="none" xmlns="http://www.w3.org/2000/svg">
<path fill-rule="evenodd" clip-rule="evenodd" d="M5.49593 16.0305C5.42099 16.0942 5.32523 16.128 5.22693 16.1255C5.16872 16.1073 5.13863 16.0519 5.08099 15.9457L5.06293 15.9125C1.59793 8.93151 6.26393 -1.98749 13.0929 0.312514C17.4509 1.77751 21.7279 9.10651 23.8939 14.2325C24.0589 14.5965 24.1319 14.7765 24.0589 14.8555C23.9886 14.9317 23.8002 14.8657 23.4286 14.7354L23.3859 14.7205C23.031 14.6008 22.6698 14.5007 22.3039 14.4205L22.0899 14.3705C17.8762 13.3989 13.4944 13.4194 9.28993 14.4305C7.96325 14.8028 6.6886 15.3404 5.49593 16.0305ZM24.5959 11.6094C23.5419 9.21187 22.2344 6.93392 20.6959 4.81442C20.6328 4.72786 20.5925 4.62672 20.5789 4.52042C20.5789 4.50792 20.5702 4.51917 20.5658 4.52479C20.5645 4.52647 20.5636 4.52765 20.5634 4.52755C20.563 4.5273 20.5667 4.51998 20.5789 4.49542C20.613 4.42731 20.6887 4.41127 20.8448 4.37821L20.8579 4.37542C21.9359 4.15042 23.4849 4.49442 24.7359 6.31942C25.7989 7.85542 25.7329 10.4474 25.4989 12.5014L25.4966 12.5223C25.4632 12.8191 25.4471 12.9623 25.3689 13.0014C25.3391 13.0062 25.3088 13.0062 25.2789 13.0014C25.1949 13.0014 25.1073 12.7824 25.0146 12.5506L24.9949 12.5014C24.8949 12.2524 24.7859 12.0124 24.6759 11.7784L24.5959 11.6094ZM28.4779 14.8533C28.5312 14.9211 28.6914 14.8998 29.0093 14.8575L29.0409 14.8533C29.3151 14.8169 29.4911 14.8001 29.6833 14.7818L29.6833 14.7818L29.6834 14.7818L29.6834 14.7818L29.8239 14.7683H30.0179C32.6228 14.4891 35.2501 14.4891 37.8549 14.7683C37.8993 14.7683 37.9382 14.7699 37.9724 14.7713C38.0722 14.7755 38.1317 14.778 38.1689 14.7333C38.1672 14.6324 38.1555 14.5319 38.1339 14.4333C37.7899 13.3763 36.7179 12.2203 34.5249 12.0333C32.6609 11.8683 30.4469 13.2193 28.7819 14.4413C28.5379 14.6203 28.4179 14.7103 28.4229 14.8003C28.4372 14.8217 28.456 14.8398 28.4779 14.8533ZM28.0899 16.6329C33.6179 15.9949 42.0979 16.0599 45.5379 19.1259C50.9069 23.9369 43.7729 33.3789 35.9999 33.8229L35.9972 33.8231C35.8501 33.833 35.7806 33.8377 35.7309 33.7929C35.6809 33.7479 35.6809 33.6689 35.6809 33.5139C35.6855 32.1341 35.5176 30.7591 35.1809 29.4209C33.9712 25.2592 31.8091 21.4363 28.8659 18.2549L28.7159 18.0949C28.467 17.8133 28.1997 17.5484 27.9159 17.3019C27.5969 17.0409 27.4319 16.9009 27.4669 16.8019C27.5019 16.7029 27.6959 16.6779 28.0899 16.6329ZM28.8269 20.6514C28.7519 20.5664 28.6619 20.4574 28.5529 20.3224C27.8149 19.4004 26.3789 17.6154 24.6939 19.3224C24.5807 19.4402 23.5713 21.1702 23.0861 22.0019L22.9539 22.2284L22.8339 22.4374L21.6339 24.5114C21.8489 24.5013 22.0587 24.4417 22.2469 24.3374C22.4045 24.2205 22.5892 24.1455 22.7836 24.1193C22.9781 24.093 23.176 24.1165 23.3589 24.1874C23.4405 24.2284 23.5115 24.2876 23.5664 24.3606C23.6213 24.4335 23.6586 24.5181 23.6754 24.6078C23.6923 24.6975 23.6882 24.7899 23.6634 24.8778C23.6387 24.9656 23.5941 25.0466 23.5329 25.1144C23.1894 25.4613 22.7612 25.7124 22.2908 25.8427C21.8203 25.973 21.324 25.9781 20.8509 25.8574L18.6579 29.6314C18.8762 29.6219 19.0893 29.5623 19.2809 29.4574C19.4385 29.3405 19.6232 29.2655 19.8176 29.2393C20.0121 29.213 20.21 29.2365 20.3929 29.3074C20.4745 29.3484 20.5455 29.4076 20.6004 29.4806C20.6553 29.5535 20.6926 29.6381 20.7094 29.7278C20.7263 29.8175 20.7222 29.9099 20.6974 29.9978C20.6727 30.0856 20.6281 30.1666 20.5669 30.2344C20.2236 30.5845 19.7935 30.8373 19.3206 30.9669C18.8477 31.0966 18.3488 31.0985 17.8749 30.9724L16.7879 32.8514C16.5128 33.2661 16.3223 33.7311 16.2274 34.2197C16.1325 34.7083 16.1351 35.2108 16.2349 35.6984C17.4859 40.0654 20.7669 46.4314 26.3699 44.8264C34.1319 42.5984 34.1869 33.9884 34.0369 32.5824C33.4039 26.5234 29.3519 21.2344 28.8269 20.6514ZM20.4919 15.6466C21.6589 15.8316 23.9219 16.1906 23.2739 18.5036C23.2239 18.6776 22.0129 20.7766 21.6199 21.4306L21.4999 21.6306L20.3089 23.6996C20.2018 23.5005 20.1468 23.2776 20.1489 23.0516C20.1695 22.864 20.1429 22.6743 20.0714 22.4996C20 22.325 19.8861 22.171 19.7399 22.0516C19.6659 22.0027 19.5816 21.9715 19.4936 21.9604C19.4056 21.9493 19.3163 21.9587 19.2324 21.9877C19.1486 22.0167 19.0726 22.0646 19.0102 22.1277C18.9479 22.1908 18.9009 22.2674 18.8729 22.3516C18.7375 22.8203 18.7274 23.3163 18.8437 23.7902C18.9601 24.264 19.1988 24.6989 19.5359 25.0516L17.3429 28.8406C17.2337 28.6403 17.1769 28.4157 17.1779 28.1876C17.2009 27.9998 17.1753 27.8093 17.1037 27.6343C17.0321 27.4592 16.9169 27.3054 16.7689 27.1876C16.6947 27.1397 16.6105 27.1093 16.5227 27.0988C16.435 27.0882 16.346 27.0978 16.2625 27.1267C16.1789 27.1556 16.1031 27.2031 16.0406 27.2656C15.9782 27.3281 15.9307 27.404 15.9019 27.4876C15.7676 27.9567 15.7586 28.4529 15.8758 28.9267C15.993 29.4004 16.2323 29.8352 16.5699 30.1876L15.4699 32.0876C15.0157 32.9821 14.2281 33.6624 13.2769 33.9816C8.86594 35.0636 1.70694 35.3826 0.315939 29.7246C-1.60806 21.8826 5.83094 17.5506 7.13094 16.9826C12.7099 14.5396 19.3049 15.4076 20.0679 15.5766C20.164 15.5984 20.2867 15.6164 20.4287 15.6373C20.4494 15.6403 20.4705 15.6434 20.4919 15.6466Z" fill="#FE6458"/>
<path d="M73.7459 18.272C75.0339 18.272 75.7899 18.6267 76.0139 19.336C76.1259 19.6907 76.1819 20.1574 76.1819 20.736C76.1819 21.3147 76.1165 21.7814 75.9859 22.136C75.8739 22.472 75.6872 22.7147 75.4259 22.864C75.0339 23.088 74.4645 23.2 73.7179 23.2L71.9259 23.088V30.5921C71.9259 31.3014 71.8325 31.8334 71.6459 32.188C71.4779 32.524 71.2072 32.7481 70.8339 32.8601C70.4792 32.9721 70.0125 33.028 69.4339 33.028C68.8552 33.028 68.3885 32.9721 68.0339 32.8601C67.6979 32.7294 67.4552 32.5334 67.3059 32.272C67.1565 31.992 67.0632 31.7401 67.0259 31.5161C67.0072 31.2921 66.9979 30.9654 66.9979 30.536V23.116H65.9899C65.5045 23.0787 65.1592 22.9667 64.9539 22.78C64.5992 22.4254 64.4219 21.7441 64.4219 20.736C64.4219 19.2054 64.9725 18.44 66.0739 18.44H66.9979V16.956C66.9979 15.5187 67.5112 14.2214 68.5379 13.064C69.5645 11.888 71.0485 11.3 72.9899 11.3C73.4192 11.3 73.7365 11.3187 73.9419 11.356C74.1659 11.3747 74.4179 11.4587 74.6979 11.608C75.2019 11.8507 75.4539 12.5694 75.4539 13.764C75.4539 14.66 75.2952 15.304 74.9779 15.696C74.7165 15.9947 74.3059 16.1627 73.7459 16.2C73.5779 16.2 73.3165 16.2 72.9619 16.2C72.2712 16.2 71.9259 16.4334 71.9259 16.9V18.44L73.7459 18.272ZM77.6379 13.764C77.6379 13.3347 77.6472 13.0174 77.6659 12.812C77.7032 12.588 77.7965 12.336 77.9459 12.056C78.1885 11.552 78.9072 11.3 80.1019 11.3C81.2405 11.3 81.9499 11.552 82.2299 12.056C82.3792 12.336 82.4632 12.588 82.4819 12.812C82.5192 13.036 82.5379 13.3627 82.5379 13.792V26.7561C82.5379 27.4281 82.5939 27.8574 82.7059 28.0441C82.8179 28.2121 83.0605 28.296 83.4339 28.296C83.8259 28.296 84.0872 28.3147 84.2179 28.352C84.3485 28.3707 84.5165 28.4454 84.7219 28.576C85.0765 28.8187 85.2539 29.4814 85.2539 30.564C85.2539 31.74 85.0765 32.4587 84.7219 32.72C84.2179 33.056 83.0512 33.1121 81.2219 32.8881C79.7845 32.7014 78.8419 32.2254 78.3939 31.4601C77.8899 30.5454 77.6379 29.0894 77.6379 27.092V13.764Z" fill="#FE6458"/>
<path d="M96.3815 19.812C96.4935 18.7667 97.2308 18.244 98.5935 18.244C99.3215 18.244 99.8628 18.3 100.217 18.412C100.572 18.524 100.815 18.72 100.945 19C101.095 19.28 101.179 19.532 101.197 19.756C101.235 19.9614 101.253 20.2787 101.253 20.708V30.508C101.253 30.9374 101.235 31.2641 101.197 31.4881C101.179 31.6934 101.104 31.936 100.973 32.216C100.712 32.7014 100.068 32.944 99.0415 32.944C98.0335 32.944 97.3521 32.8227 96.9975 32.58C96.6615 32.3187 96.4655 31.9454 96.4095 31.4601C95.7188 32.4494 94.5615 32.944 92.9375 32.944C91.3321 32.944 89.8388 32.2067 88.4575 30.732C87.0761 29.2574 86.3855 27.5494 86.3855 25.608C86.3855 23.648 87.0761 21.94 88.4575 20.484C89.8575 19.0094 91.3881 18.272 93.0495 18.272C93.6841 18.272 94.2628 18.384 94.7855 18.608C95.3081 18.832 95.6721 19.0467 95.8775 19.252C96.0828 19.4387 96.2508 19.6254 96.3815 19.812ZM91.2855 25.636C91.2855 26.252 91.5281 26.812 92.0135 27.316C92.4988 27.8014 93.0868 28.0441 93.7775 28.0441C94.4681 28.0441 95.0375 27.792 95.4855 27.288C95.9521 26.784 96.1855 26.2334 96.1855 25.636C96.1855 25.02 95.9615 24.4507 95.5135 23.9281C95.0841 23.4054 94.4961 23.144 93.7495 23.144C93.0215 23.144 92.4241 23.4054 91.9575 23.9281C91.5095 24.4507 91.2855 25.02 91.2855 25.636Z" fill="#FE6458"/>
<path d="M103.485 37.004V20.652C103.485 20.2227 103.494 19.9054 103.513 19.7C103.55 19.4947 103.634 19.2614 103.765 19C104.026 18.496 104.652 18.244 105.641 18.244C106.63 18.244 107.293 18.3747 107.629 18.636C107.984 18.8787 108.189 19.2427 108.245 19.728C108.954 18.7574 110.065 18.272 111.577 18.272C113.108 18.272 114.554 18.9907 115.917 20.428C117.28 21.8654 117.961 23.536 117.961 25.44C117.961 27.344 117.28 29.0147 115.917 30.452C114.573 31.8894 113.136 32.608 111.605 32.608C110.074 32.608 108.964 32.1787 108.273 31.32V36.976C108.273 37.4054 108.254 37.7227 108.217 37.9281C108.198 38.1334 108.114 38.3667 107.965 38.628C107.834 38.908 107.601 39.1041 107.265 39.2161C106.929 39.3281 106.472 39.3841 105.893 39.3841C105.314 39.3841 104.848 39.3281 104.493 39.2161C104.157 39.1041 103.914 38.9174 103.765 38.656C103.634 38.3947 103.55 38.1614 103.513 37.956C103.494 37.7507 103.485 37.4334 103.485 37.004ZM109.029 23.816C108.6 24.32 108.385 24.8707 108.385 25.468C108.385 26.0654 108.6 26.616 109.029 27.12C109.477 27.6054 110.037 27.848 110.709 27.848C111.4 27.848 111.978 27.6054 112.445 27.12C112.93 26.6347 113.173 26.084 113.173 25.468C113.173 24.852 112.949 24.3014 112.501 23.816C112.053 23.312 111.465 23.06 110.737 23.06C110.028 23.06 109.458 23.312 109.029 23.816Z" fill="#FE6458"/>
<path d="M119.782 37.004V20.652C119.782 20.2227 119.791 19.9054 119.81 19.7C119.847 19.4947 119.931 19.2614 120.062 19C120.323 18.496 120.949 18.244 121.938 18.244C122.927 18.244 123.59 18.3747 123.926 18.636C124.281 18.8787 124.486 19.2427 124.542 19.728C125.251 18.7574 126.362 18.272 127.874 18.272C129.405 18.272 130.851 18.9907 132.214 20.428C133.577 21.8654 134.258 23.536 134.258 25.44C134.258 27.344 133.577 29.0147 132.214 30.452C130.87 31.8894 129.433 32.608 127.902 32.608C126.371 32.608 125.261 32.1787 124.57 31.32V36.976C124.57 37.4054 124.551 37.7227 124.514 37.9281C124.495 38.1334 124.411 38.3667 124.262 38.628C124.131 38.908 123.898 39.1041 123.562 39.2161C123.226 39.3281 122.769 39.3841 122.19 39.3841C121.611 39.3841 121.145 39.3281 120.79 39.2161C120.454 39.1041 120.211 38.9174 120.062 38.656C119.931 38.3947 119.847 38.1614 119.81 37.956C119.791 37.7507 119.782 37.4334 119.782 37.004ZM125.326 23.816C124.897 24.32 124.682 24.8707 124.682 25.468C124.682 26.0654 124.897 26.616 125.326 27.12C125.774 27.6054 126.334 27.848 127.006 27.848C127.697 27.848 128.275 27.6054 128.742 27.12C129.227 26.6347 129.47 26.084 129.47 25.468C129.47 24.852 129.246 24.3014 128.798 23.816C128.35 23.312 127.762 23.06 127.034 23.06C126.325 23.06 125.755 23.312 125.326 23.816Z" fill="#FE6458"/>
<path d="M136.079 20.708C136.079 20.2787 136.088 19.9614 136.107 19.756C136.144 19.532 136.228 19.28 136.359 19C136.62 18.5147 137.348 18.272 138.543 18.272C139.439 18.272 140.074 18.4307 140.447 18.748C140.764 19.0094 140.932 19.4107 140.951 19.952C140.97 20.1387 140.979 20.4094 140.979 20.764V30.564C140.979 30.9934 140.96 31.3201 140.923 31.5441C140.904 31.7494 140.82 31.992 140.671 32.272C140.428 32.7574 139.71 33 138.515 33C137.339 33 136.62 32.748 136.359 32.244C136.228 31.964 136.144 31.7214 136.107 31.5161C136.088 31.3107 136.079 30.984 136.079 30.536V20.708ZM140.671 15.528C140.54 15.7894 140.298 15.976 139.943 16.088C139.588 16.2 139.112 16.256 138.515 16.256C137.936 16.256 137.47 16.2 137.115 16.088C136.76 15.976 136.508 15.78 136.359 15.5C136.228 15.22 136.144 14.9774 136.107 14.772C136.088 14.548 136.079 14.2214 136.079 13.792C136.079 13.3627 136.088 13.0454 136.107 12.84C136.144 12.616 136.228 12.3734 136.359 12.112C136.62 11.608 137.348 11.356 138.543 11.356C139.719 11.356 140.428 11.608 140.671 12.112C140.82 12.392 140.904 12.644 140.923 12.868C140.96 13.0734 140.979 13.3907 140.979 13.82C140.979 14.2494 140.96 14.576 140.923 14.8C140.904 15.0054 140.82 15.248 140.671 15.528Z" fill="#FE6458"/>
</svg>
